<?xml version="1.0" standalone="no"?>
<!--
  Mjölnir silhouette by RootOfAllLight, via Wikimedia Commons.
  https://commons.wikimedia.org/wiki/File:Thor%27s_Hammer-Mj%C3%B6lnir.svg
  Licensed under CC BY-SA 4.0 (https://creativecommons.org/licenses/by-sa/4.0/).
-->
<svg xmlns="http://www.w3.org/2000/svg" viewBox="0 0 1700 1650" fill="#1a1a1a">
  <style>@media (prefers-color-scheme: dark) { path { fill: #f5f5f5; } }</style>
  <path d="M513 160.5V279h135l.1 310.2c.1 170.7 0 313-.1 316.3-.4 11.4-5.8 28-13.3 41-39.8 69.2-151.8 116.1-322.2 134.9-62.1 6.9-118 9.6-199.2 9.6H62v155.8c0 170.5-.3 160.5 5.8 170.3 4.1 6.3 11 11.7 18.9 14.6 5.5 2 10.5 2.7 26.8 3.8 221.7 15.8 436.5 60.5 593 123.5 48.6 19.6 94.7 42.4 133.9 66.2 7.1 4.3 13.2 7.8 13.6 7.8.4 0 8.1-4.4 17.1-9.9 84.6-50.9 192.3-92.7 323.5-125.5 121.4-30.4 258-51.7 393.5-61.6 22.3-1.6 27.5-2.3 33.1-4.3 11.2-4 18.7-11.4 22.8-22.3 2-5.4 2-7.1 2-161.9V1091h-51.2c-81.3 0-137.2-2.7-199.3-9.6-99.5-10.9-176.8-30.7-234.7-60.1-52.4-26.6-84.3-58.5-97.4-97.3l-2.9-8.5-.3-318.3-.2-318.2h135V42H513v118.5z"/>
</svg>
